<svg xmlns="http://www.w3.org/2000/svg" xmlns:svg="http://www.w3.org/2000/svg" id="Capa_1" width="50" height="50" x="0" y="0" version="1.1" viewBox="0 0 50 50" xml:space="preserve"><metadata id="metadata41"/><g style="fill:#fff;fill-opacity:1" id="g3" transform="matrix(0.11147951,0,0,0.11147951,7.548001e-5,0.1175862)"><path style="fill:#fff;fill-opacity:1" id="path5" d="M 444.277,215.253 242.72,52.441 231.534,43.152 c -4.22,-3.506 -10.34,-3.506 -14.559,0 l -58.162,48.301 0,-20.422 c 0,-6.294 -5.104,-11.397 -11.396,-11.397 l -43.449,0 c -6.293,0 -11.396,5.104 -11.396,11.397 l 0,75.233 -88.381,72.107 c -4.875,3.979 -5.605,11.157 -1.625,16.035 2.254,2.764 5.531,4.193 8.836,4.193 2.533,0 5.082,-0.841 7.203,-2.565 l 34.477,-28.126 0,188.684 c 0,6.294 5.102,11.397 11.396,11.397 l 121.789,0 c 6.295,0 11.398,-5.104 11.398,-11.397 l 0,-88.426 53.18,0 0,88.426 c 0,6.294 5.104,11.397 11.398,11.397 l 121.789,0 c 6.295,0 11.397,-5.104 11.397,-11.397 l 0,-191.491 34.521,27.884 c 2.108,1.702 4.643,2.532 7.158,2.532 3.321,0 6.622,-1.447 8.87,-4.235 3.959,-4.898 3.195,-12.074 -1.701,-16.029 z M 115.366,82.428 l 20.652,0 0,27.164 -20.652,16.716 0,-43.88 z m 257.27,107.53 0,195.235 -98.994,0 0,-88.427 c 0,-6.294 -5.104,-11.396 -11.397,-11.396 l -75.977,0 c -6.295,0 -11.396,5.104 -11.396,11.396 l 0,88.427 -98.995,0 0,-195.235 44.309,-36.798 c 0,0 103.748,-85.009 104.41,-86.141 l 148.04,122.939 z"/></g></svg>